# xmcd
#
# Track frame offsets:
#	150
#	13373
#	24614
#	44633
#	57636
#	69203
#	78895
#	93118
#	104697
#	122553
#	134823
#	145674
#	161321
#	172549
#	185504
#	199605
#	212189
#	224370
#	237479
#	253516
#
# Disc length: 3549 seconds
#
# Revision: 0
# Processed by: cddbd v1.5.2PL0 Copyright (c) Steve Scherf et al.
# Submitted via: EasyCDDAExtractor 9.1.0.1
#
DISCID=200ddb14
DTITLE=Crystal Gayle - Best Of Crystal Gayle Disc 2
DYEAR=2005
DGENRE=Vocal
TTITLE0=Talking In Your Sleep
TTITLE1=Hello I Love You
TTITLE2=Faithless Love
TTITLE3=The Wayward Wind
TTITLE4=Never Ending Song Of Love
TTITLE5=Before I'm Fool Enough
TTITLE6=Green Door
TTITLE7=A Woman's Heart (Is A Handy Place To Be)
TTITLE8=We Must Believe In Magic
TTITLE9=I'm Not So Far Away
TTITLE10=Gonna Lay Me Down Beside My Memories
TTITLE11=What He's Doing Now
TTITLE12=Forgettin' 'bout You
TTITLE13=Too Good To Throw Away
TTITLE14=Right In The Palm Of Your Hand
TTITLE15=It Ain't Gonna Worry My Mind
TTITLE16=What You've Done For Me
TTITLE17=The Trouble With Me (Is You)
TTITLE18=Just Like The Blues
TTITLE19=Whenever It Comes To You
EXTD=
EXTT0=
EXTT1=
EXTT2=
EXTT3=
EXTT4=
EXTT5=
EXTT6=
EXTT7=
EXTT8=
EXTT9=
EXTT10=
EXTT11=
EXTT12=
EXTT13=
EXTT14=
EXTT15=
EXTT16=
EXTT17=
EXTT18=
EXTT19=
PLAYORDER=
